<?xml version="1.0" standalone="no"?>
<!DOCTYPE svg PUBLIC "-//W3C//DTD SVG 20010904//EN"
 "http://www.w3.org/TR/2001/REC-SVG-20010904/DTD/svg10.dtd">
<svg version="1.0" xmlns="http://www.w3.org/2000/svg"
 width="375.000000pt" height="375.000000pt" viewBox="0 0 375.000000 375.000000"
 preserveAspectRatio="xMidYMid meet">

<g transform="translate(0.000000,375.000000) scale(0.100000,-0.100000)"
fill="#000000" stroke="none">
<path d="M1523 3132 c-29 -10 -70 -31 -92 -47 -73 -50 -131 -164 -131 -257 l0
-38 -133 0 -134 0 -22 -202 c-12 -112 -21 -219 -21 -238 1 -62 -114 -1115
-122 -1118 -4 -2 -8 -8 -8 -13 0 -5 95 -9 225 -9 l225 0 0 150 c0 83 2 150 3
150 2 0 41 -22 86 -50 204 -122 420 -161 549 -99 58 28 82 69 82 138 0 94 -46
123 -371 226 -205 65 -276 106 -352 200 -63 79 -81 141 -74 254 3 51 13 108
25 138 99 257 434 368 778 258 44 -13 82 -25 87 -25 4 0 7 54 7 120 l0 120
-97 0 -98 0 -2 55 c-1 66 -36 146 -88 203 -77 86 -216 122 -322 84z m168 -73
c85 -26 156 -117 166 -214 l6 -55 -247 0 -246 0 0 28 c0 16 6 50 14 75 39 131
176 205 307 166z"/>
<path d="M2638 3043 c-12 -3 -16 -12 -13 -31 2 -15 7 -48 10 -74 l6 -48 81 0
80 0 -5 33 c-3 17 -9 53 -13 80 l-6 47 -62 -1 c-33 -1 -69 -3 -78 -6z"/>
<path d="M2390 2853 c0 -9 5 -45 11 -80 l11 -63 42 0 c22 0 58 -3 80 -7 l39
-6 -7 69 c-11 110 -6 104 -97 104 -67 0 -79 -3 -79 -17z"/>
<path d="M2862 2863 l-64 -4 7 -62 c3 -34 8 -69 11 -78 4 -13 -8 -17 -63 -22
-38 -4 -90 -7 -117 -7 l-48 0 5 -42 c4 -24 9 -70 12 -103 12 -115 -3 -105 145
-105 151 0 139 -14 115 135 -22 134 -26 125 51 125 l66 0 -6 38 c-3 20 -8 58
-11 85 -5 36 -10 47 -23 45 -9 -1 -46 -3 -80 -5z"/>
<path d="M2180 2300 c0 -49 -4 -90 -9 -90 -5 0 -55 22 -112 49 -132 62 -225
85 -322 79 -123 -8 -187 -60 -187 -154 0 -58 61 -110 182 -156 52 -21 117 -42
144 -49 73 -18 211 -76 276 -115 68 -42 144 -122 171 -184 25 -55 34 -185 18
-259 -28 -131 -109 -234 -233 -294 -99 -49 -191 -69 -318 -69 -119 1 -227 20
-342 62 l-78 29 0 -175 0 -174 496 -2 c608 -4 907 9 918 38 3 8 -3 83 -14 167
-11 84 -29 229 -40 322 -11 94 -29 242 -40 330 -30 231 -90 719 -90 728 0 4
-94 7 -210 7 l-210 0 0 -90z"/>
</g>
</svg>
